<?xml version="1.0" standalone="no"?>
<!DOCTYPE svg PUBLIC "-//W3C//DTD SVG 20010904//EN"
 "http://www.w3.org/TR/2001/REC-SVG-20010904/DTD/svg10.dtd">
<svg version="1.0" xmlns="http://www.w3.org/2000/svg"
 width="377.000000pt" height="377.000000pt" viewBox="0 0 377.000000 377.000000"
 preserveAspectRatio="xMidYMid meet">

<g transform="translate(0.000000,377.000000) scale(0.100000,-0.100000)"
fill="#000000" stroke="none">
<path d="M0 1885 l0 -1885 1885 0 1885 0 0 1885 0 1885 -1885 0 -1885 0 0
-1885z m2053 1100 c376 -66 677 -293 842 -637 70 -146 96 -255 102 -436 9
-232 -21 -374 -119 -564 -251 -492 -836 -735 -1354 -562 -179 60 -316 144
-450 278 -225 225 -334 489 -334 806 0 551 393 1014 945 1114 106 19 262 19
368 1z"/>
<path d="M1745 2973 c-63 -8 -124 -23 -181 -44 l-59 -23 93 -13 93 -14 38 30
c20 16 49 35 64 42 52 24 33 32 -48 22z"/>
<path d="M1860 2961 c-65 -20 -153 -81 -138 -96 12 -12 120 -45 147 -45 16 0
53 11 81 24 29 14 82 32 117 42 74 20 72 23 -40 59 -79 25 -122 29 -167 16z"/>
<path d="M2115 2934 c33 -13 67 -23 75 -21 8 1 -14 13 -49 25 -86 29 -101 27
-26 -4z"/>
<path d="M2099 2876 c-61 -13 -179 -57 -179 -67 0 -3 29 -14 64 -23 34 -10 98
-33 142 -52 67 -29 80 -32 87 -19 4 8 31 28 59 44 l50 29 -43 32 c-40 29 -114
71 -121 69 -2 0 -28 -6 -59 -13z"/>
<path d="M2226 2881 c47 -42 128 -92 147 -89 18 3 9 12 -48 51 -38 26 -79 47
-89 47 -12 0 -16 -3 -10 -9z"/>
<path d="M1416 2850 c-26 -17 -46 -33 -44 -35 2 -2 40 2 83 10 44 8 110 14
147 15 66 0 94 11 60 25 -9 4 -57 9 -107 12 -88 5 -91 4 -139 -27z"/>
<path d="M2330 2866 c0 -9 110 -84 138 -94 46 -16 39 2 -13 38 -54 37 -125 69
-125 56z"/>
<path d="M1315 2831 c-27 -16 -61 -41 -75 -55 l-24 -27 49 21 c53 22 138 90
114 90 -8 0 -36 -13 -64 -29z"/>
<path d="M1429 2800 c-107 -22 -117 -27 -172 -92 -46 -55 -117 -158 -117 -170
0 -3 26 -10 58 -13 31 -4 97 -20 147 -37 50 -16 99 -27 112 -23 12 3 44 28 70
56 42 45 50 61 65 129 9 43 26 97 37 121 12 23 21 44 21 46 0 10 -148 -1 -221
-17z"/>
<path d="M1655 2790 c-25 -49 -55 -140 -55 -167 0 -23 5 -20 63 32 34 31 88
74 120 95 55 37 57 39 36 51 -13 6 -51 14 -85 17 -62 5 -62 5 -79 -28z"/>
<path d="M1905 2774 c41 -23 96 -66 178 -137 37 -33 69 -58 70 -56 13 24 34
106 29 111 -15 15 -220 87 -263 93 l-44 6 30 -17z"/>
<path d="M1793 2736 c-34 -22 -94 -69 -133 -104 -64 -58 -70 -66 -70 -103 l0
-40 68 8 c37 4 163 7 280 7 l213 -1 -3 30 c-2 25 -21 46 -100 111 -53 45 -118
93 -145 107 l-48 27 -62 -42z"/>
<path d="M2301 2759 c-30 -12 -81 -48 -81 -58 0 -4 19 -18 43 -31 23 -13 75
-45 115 -72 69 -47 75 -49 108 -38 l34 12 -22 31 c-36 50 -149 167 -162 166
-6 0 -22 -5 -35 -10z"/>
<path d="M2428 2713 c29 -32 65 -75 80 -96 22 -33 29 -37 51 -32 14 4 28 9 31
11 2 3 -34 43 -81 90 -61 59 -93 84 -111 84 -22 0 -20 -5 30 -57z"/>
<path d="M2530 2696 c30 -31 56 -56 58 -56 2 0 -7 19 -21 42 -16 27 -37 48
-59 56 -32 13 -31 11 22 -42z"/>
<path d="M1207 2721 c-33 -21 -56 -56 -82 -124 -24 -63 -14 -69 19 -12 15 25
47 70 72 100 45 56 42 70 -9 36z"/>
<path d="M2590 2686 c0 -3 8 -21 17 -41 13 -28 22 -35 45 -35 16 0 27 4 23 9
-8 13 -85 74 -85 67z"/>
<path d="M1043 2594 c-49 -49 -96 -105 -107 -123 l-19 -33 39 26 c21 14 60 33
86 42 32 10 48 21 48 32 0 9 11 44 25 76 13 33 22 62 20 65 -3 2 -44 -36 -92
-85z"/>
<path d="M2186 2640 c-9 -22 -16 -51 -16 -64 0 -30 81 -106 113 -106 12 0 51
15 85 33 59 31 61 35 45 49 -23 21 -194 128 -203 128 -5 0 -15 -18 -24 -40z"/>
<path d="M2637 2577 c83 -132 93 -138 108 -69 10 47 -23 82 -77 82 -29 0 -37
-3 -31 -13z"/>
<path d="M2562 2572 c-9 -6 0 -30 35 -91 26 -46 49 -78 51 -71 5 15 -17 129
-29 153 -10 18 -35 22 -57 9z"/>
<path d="M2497 2551 c-10 -4 -19 -11 -19 -15 0 -5 32 -38 71 -75 39 -36 71
-64 71 -61 0 13 -86 154 -95 156 -5 1 -18 -1 -28 -5z"/>
<path d="M1545 2520 c-32 -33 -29 -46 10 -36 20 5 25 13 25 36 0 17 -1 30 -3
30 -2 0 -16 -13 -32 -30z"/>
<path d="M2160 2517 c0 -20 5 -27 20 -27 11 0 20 4 20 8 0 5 -9 17 -20 27 -20
18 -20 17 -20 -8z"/>
<path d="M2375 2493 c-27 -14 -45 -28 -40 -30 64 -23 245 -85 260 -89 11 -3
-15 29 -58 70 -43 42 -86 76 -95 76 -9 -1 -39 -13 -67 -27z"/>
<path d="M2655 2490 c3 -19 10 -57 14 -85 l7 -50 19 37 18 37 -32 48 -32 48 6
-35z"/>
<path d="M2751 2476 c-11 -40 -11 -48 8 -84 24 -47 24 -47 74 -56 28 -5 37 -4
37 6 0 12 -97 178 -103 178 -2 0 -8 -20 -16 -44z"/>
<path d="M1106 2474 c-18 -39 -35 -144 -22 -144 4 0 32 13 64 29 32 16 102 44
156 62 l99 33 -64 24 c-36 14 -96 26 -139 29 l-75 6 -19 -39z"/>
<path d="M1007 2474 c-105 -55 -156 -142 -172 -296 l-7 -63 31 37 c17 20 59
59 94 86 59 48 63 54 95 144 17 51 32 99 32 106 0 18 -19 14 -73 -14z"/>
<path d="M1785 2495 c-11 -2 -60 -7 -109 -10 l-89 -7 5 -62 5 -62 108 -107
c64 -63 112 -103 119 -99 6 4 45 32 86 63 41 31 113 81 160 112 l85 57 -3 49
c-4 47 -5 49 -40 55 -47 7 -300 16 -327 11z"/>
<path d="M2160 2457 c0 -12 3 -32 6 -44 l6 -21 36 21 c21 11 39 22 41 24 10 8
-26 31 -56 36 -29 6 -33 4 -33 -16z"/>
<path d="M1510 2461 c-39 -11 -34 -34 13 -63 24 -16 47 -28 51 -28 3 0 6 23 6
50 0 54 -7 58 -70 41z"/>
<path d="M2287 2443 c-5 -8 72 -125 101 -155 7 -7 227 34 237 44 11 11 -221
99 -299 114 -19 3 -36 2 -39 -3z"/>
<path d="M1320 2410 c-47 -16 -120 -46 -163 -67 l-79 -38 7 -70 c4 -38 15
-112 25 -163 31 -154 50 -159 111 -24 47 104 129 245 190 328 55 75 42 79 -91
34z"/>
<path d="M2225 2409 c-16 -11 -36 -23 -43 -27 -10 -6 -8 -23 9 -78 12 -38 23
-70 24 -72 4 -4 145 35 153 42 5 6 -100 156 -108 155 -3 0 -18 -9 -35 -20z"/>
<path d="M1417 2358 c-81 -115 -180 -295 -212 -387 l-12 -36 54 -37 c62 -44
67 -45 110 -19 17 11 91 47 165 81 73 34 137 65 141 70 5 4 -3 39 -16 78 -14
38 -33 105 -42 147 -9 43 -18 82 -20 86 -6 8 -111 79 -119 79 -3 0 -25 -28
-49 -62z"/>
<path d="M2702 2376 l-21 -36 39 0 c45 0 50 12 21 49 l-18 23 -21 -36z"/>
<path d="M2039 2289 c-57 -40 -130 -92 -162 -117 -48 -38 -56 -48 -44 -59 11
-11 30 -7 118 26 57 21 137 49 177 62 39 13 72 25 72 28 -1 20 -39 126 -47
128 -5 2 -56 -29 -114 -68z"/>
<path d="M1051 2343 c0 -6 -4 -20 -7 -30 -5 -14 -4 -15 5 -7 7 7 11 20 8 30
-3 11 -5 14 -6 7z"/>
<path d="M2720 2320 c-14 -4 -20 -8 -15 -9 6 -1 34 -19 63 -41 28 -22 52 -38
52 -35 0 2 -10 25 -22 50 -22 46 -32 50 -78 35z"/>
<path d="M1616 2258 c17 -75 52 -189 64 -208 6 -10 20 -3 60 30 28 23 53 40
56 37 3 -2 -9 -15 -26 -27 -41 -29 -34 -34 18 -13 l41 16 -32 41 c-39 49 -177
186 -188 186 -4 0 -1 -28 7 -62z"/>
<path d="M2518 2297 c-59 -13 -109 -25 -111 -27 -3 -3 13 -38 35 -78 34 -61
43 -71 55 -60 21 17 143 171 143 180 0 10 5 11 -122 -15z"/>
<path d="M2831 2258 c17 -35 33 -65 35 -67 4 -4 44 61 44 72 0 20 -51 57 -80
57 l-30 0 31 -62z"/>
<path d="M1043 2282 c-15 -9 -40 -125 -49 -222 l-7 -69 34 -4 34 -4 -32 -1
-33 -2 1 -97 c0 -96 10 -188 22 -199 3 -3 27 10 53 29 39 29 50 44 65 92 16
51 16 62 3 104 -11 40 -20 50 -46 59 -30 11 -30 11 -4 6 28 -5 29 -4 22 28
-21 103 -36 206 -36 244 0 44 -5 50 -27 36z"/>
<path d="M2634 2273 c-7 -10 -41 -53 -78 -96 l-65 -79 35 -69 c30 -60 37 -68
53 -60 32 18 40 35 56 132 18 108 18 202 -1 172z"/>
<path d="M2756 2213 c24 -38 46 -72 48 -78 2 -5 14 0 27 12 22 22 23 23 4 43
-21 23 -109 90 -118 90 -3 0 14 -30 39 -67z"/>
<path d="M2657 2144 c-9 -70 -16 -129 -14 -131 2 -2 22 10 45 27 47 34 47 34
8 163 l-21 69 -18 -128z"/>
<path d="M2330 2250 c-14 -5 -44 -14 -67 -20 l-42 -11 20 -46 c22 -52 107
-183 118 -183 4 0 31 25 61 55 61 61 61 57 -3 163 -32 53 -42 57 -87 42z"/>
<path d="M2703 2250 c2 -8 12 -46 22 -85 10 -38 19 -71 21 -73 4 -6 44 18 44
27 0 4 -21 39 -46 77 -25 38 -44 62 -41 54z"/>
<path d="M907 2170 l-80 -80 5 -75 c3 -42 8 -78 11 -81 3 -4 18 3 32 14 14 12
41 26 59 32 34 11 34 11 45 103 7 51 16 109 20 130 6 24 5 37 -1 37 -6 0 -46
-36 -91 -80z"/>
<path d="M2890 2195 c-14 -26 -16 -23 44 -90 5 -6 5 10 1 39 -11 83 -22 94
-45 51z"/>
<path d="M2085 2174 c-55 -19 -130 -46 -167 -60 l-67 -25 60 -91 c33 -51 81
-133 106 -184 32 -65 50 -91 59 -86 25 14 264 233 264 242 0 5 -21 42 -47 82
-27 40 -57 92 -67 116 -10 23 -24 42 -30 41 -6 0 -56 -16 -111 -35z"/>
<path d="M798 2120 c-2 -22 0 -40 4 -40 5 0 8 18 8 40 0 22 -2 40 -4 40 -2 0
-6 -18 -8 -40z"/>
<path d="M2835 2136 c-18 -13 -19 -17 -7 -48 8 -18 28 -72 46 -120 36 -100 43
-109 51 -77 5 22 -29 160 -57 229 -12 29 -14 30 -33 16z"/>
<path d="M2895 2103 c3 -10 13 -44 22 -75 9 -32 20 -55 25 -52 16 10 8 58 -17
101 -26 43 -43 58 -30 26z"/>
<path d="M2770 2082 c-21 -17 -22 -21 -11 -89 6 -40 11 -108 11 -152 0 -72 2
-81 18 -81 32 0 102 57 102 84 0 44 -78 256 -94 256 -2 0 -14 -8 -26 -18z"/>
<path d="M1765 2054 c-33 -13 -63 -28 -67 -32 -16 -16 167 -345 203 -368 12
-7 149 47 149 59 0 36 -190 357 -215 364 -5 1 -37 -9 -70 -23z"/>
<path d="M2416 2024 l-49 -55 38 -39 38 -39 48 27 c27 15 49 33 49 39 0 21
-54 123 -65 122 -5 0 -32 -25 -59 -55z"/>
<path d="M2678 2019 c-40 -26 -49 -39 -63 -84 -18 -63 -18 -76 -4 -125 10 -33
17 -40 54 -50 23 -6 53 -10 66 -8 23 3 24 6 22 78 -3 107 -14 220 -21 220 -4
0 -28 -14 -54 -31z"/>
<path d="M797 2025 c-12 -28 3 -147 17 -142 12 4 10 64 -3 127 -6 30 -8 32
-14 15z"/>
<path d="M1665 1999 c-4 -6 -14 -8 -22 -5 -8 3 -12 2 -9 -3 3 -4 -48 -57 -114
-116 -66 -59 -120 -111 -120 -116 0 -5 19 -37 43 -71 23 -35 53 -87 66 -115
14 -29 28 -53 32 -53 12 0 302 101 326 114 22 11 21 12 -40 106 -34 53 -80
134 -102 182 -40 87 -48 97 -60 77z"/>
<path d="M1463 1920 c-79 -38 -143 -72 -143 -76 0 -5 14 -23 32 -41 l31 -32
56 49 c116 102 186 169 176 169 -5 0 -74 -31 -152 -69z"/>
<path d="M2956 1941 c-7 -48 3 -151 15 -151 5 0 9 37 9 83 0 94 -13 132 -24
68z"/>
<path d="M890 1939 c-41 -30 -42 -32 -36 -71 7 -42 71 -217 85 -231 4 -4 18 1
31 11 22 18 22 20 11 102 -6 46 -11 114 -11 152 0 81 -12 86 -80 37z"/>
<path d="M2579 1957 c-14 -11 -15 -17 -5 -35 12 -23 13 -22 23 12 12 38 8 43
-18 23z"/>
<path d="M767 1947 c-9 -24 -8 -156 2 -182 6 -15 10 -8 14 30 8 61 -5 179 -16
152z"/>
<path d="M2237 1854 c-64 -59 -115 -109 -113 -111 6 -7 296 135 296 144 0 5
-15 24 -33 41 l-33 32 -117 -106z"/>
<path d="M1140 1933 c0 -5 4 -14 9 -21 7 -11 9 -11 14 1 3 8 3 18 0 21 -9 8
-23 7 -23 -1z"/>
<path d="M2498 1909 c-21 -11 -38 -23 -38 -28 0 -9 90 -75 95 -69 15 15 21 56
12 85 -12 38 -18 39 -69 12z"/>
<path d="M1175 1899 c-8 -25 2 -86 15 -94 12 -7 90 32 90 45 0 8 -82 70 -94
70 -2 0 -8 -9 -11 -21z"/>
<path d="M2404 1860 c-5 -5 -79 -41 -164 -80 -85 -40 -158 -75 -162 -79 -4 -4
2 -31 13 -61 12 -30 31 -100 44 -155 l22 -100 56 -38 c31 -21 62 -35 68 -32
38 24 239 376 262 460 5 16 -6 28 -48 58 -56 38 -74 44 -91 27z"/>
<path d="M816 1844 c-3 -8 -1 -35 4 -58 15 -68 60 -206 67 -206 4 0 14 7 23
15 16 15 15 21 -16 93 -18 42 -39 98 -46 124 -12 50 -22 59 -32 32z"/>
<path d="M2926 1848 c-4 -10 -4 -50 1 -90 8 -62 11 -69 18 -45 10 36 -8 160
-19 135z"/>
<path d="M1146 1807 c-11 -41 -8 -48 13 -36 11 8 16 19 13 31 -7 28 -19 30
-26 5z"/>
<path d="M1248 1810 c-20 -11 -39 -24 -43 -29 -5 -10 49 -141 58 -141 3 0 29
27 57 61 l53 60 -34 35 c-38 39 -41 40 -91 14z"/>
<path d="M2577 1816 c-3 -8 -2 -18 4 -22 16 -9 22 2 11 21 -8 15 -10 16 -15 1z"/>
<path d="M2865 1784 c-16 -13 -43 -28 -60 -32 -29 -8 -30 -8 -47 -133 -10 -68
-16 -128 -15 -134 2 -5 40 26 85 70 l82 81 -1 64 c-1 36 -4 75 -7 87 l-7 21
-30 -24z"/>
<path d="M2548 1748 c-22 -65 -127 -258 -191 -352 -51 -74 -63 -98 -51 -103
28 -10 330 106 347 134 8 13 -12 202 -29 272 -8 36 -20 69 -27 73 -23 15 -38
8 -49 -24z"/>
<path d="M798 1735 c-4 -31 0 -50 19 -83 14 -24 26 -42 28 -40 2 2 -7 39 -19
83 -23 80 -23 80 -28 40z"/>
<path d="M1150 1752 c-27 -22 -48 -108 -56 -232 l-5 -85 23 30 c13 16 49 60
80 97 l57 66 -32 71 c-18 39 -35 71 -38 71 -4 0 -17 -8 -29 -18z"/>
<path d="M2630 1752 c0 -4 9 -50 20 -102 11 -52 20 -115 20 -140 1 -95 34 -86
55 16 8 38 17 102 21 142 l7 72 -29 0 c-16 0 -44 4 -62 9 -17 5 -32 7 -32 3z"/>
<path d="M1339 1703 c-78 -85 -76 -72 -29 -153 23 -39 48 -74 55 -76 15 -6
155 34 155 44 -1 28 -121 222 -138 222 -4 0 -24 -17 -43 -37z"/>
<path d="M1052 1692 c-48 -31 -48 -29 -8 -157 l23 -70 7 66 c4 36 13 94 20
128 7 33 10 61 7 61 -3 0 -25 -13 -49 -28z"/>
<path d="M1997 1647 c-26 -23 -47 -46 -47 -52 0 -11 171 -185 182 -185 10 0 1
46 -27 145 -29 100 -42 135 -52 135 -5 -1 -29 -20 -56 -43z"/>
<path d="M1953 1654 c-18 -8 -33 -18 -33 -23 0 -21 17 -18 50 10 38 31 33 35
-17 13z"/>
<path d="M2937 1653 c-4 -3 -6 -29 -6 -57 l1 -51 9 54 c9 54 8 67 -4 54z"/>
<path d="M966 1627 c-17 -12 -15 -17 18 -75 36 -60 67 -94 52 -57 -3 10 -14
47 -22 82 -9 34 -20 63 -23 63 -4 0 -15 -6 -25 -13z"/>
<path d="M800 1617 c0 -10 5 -38 11 -63 11 -43 12 -44 30 -28 25 23 24 33 -11
74 -22 27 -30 31 -30 17z"/>
<path d="M1870 1621 c-8 -5 -85 -33 -170 -62 -85 -29 -156 -53 -157 -54 -3 -2
38 -128 44 -134 4 -5 215 136 283 190 33 26 47 44 44 54 -7 17 -22 19 -44 6z"/>
<path d="M1218 1572 c-47 -52 -122 -152 -117 -156 5 -4 229 40 235 47 4 3 -66
130 -79 143 -2 2 -20 -13 -39 -34z"/>
<path d="M2875 1569 c-22 -22 -65 -60 -95 -84 -51 -40 -57 -48 -82 -126 -44
-137 -44 -132 -16 -124 100 31 177 106 203 197 14 50 36 178 30 178 0 0 -19
-18 -40 -41z"/>
<path d="M912 1577 l-22 -23 28 -26 c38 -35 102 -82 106 -77 2 2 -18 37 -44
76 l-47 73 -21 -23z"/>
<path d="M1865 1544 c-33 -26 -110 -80 -170 -120 l-111 -74 6 -47 c4 -41 8
-48 35 -55 41 -12 331 -15 439 -4 l89 8 -5 62 -5 61 -108 108 c-59 59 -108
107 -109 107 0 0 -28 -21 -61 -46z"/>
<path d="M856 1519 c-36 -52 -7 -109 56 -109 l27 0 -26 58 c-33 74 -38 78 -57
51z"/>
<path d="M936 1462 c23 -56 37 -67 74 -56 l32 9 -61 42 -61 42 16 -37z"/>
<path d="M1437 1476 l-68 -21 42 -60 c69 -101 66 -98 108 -73 20 12 40 25 45
29 12 10 -32 149 -47 148 -7 -1 -43 -11 -80 -23z"/>
<path d="M1295 1439 c-16 -5 -59 -14 -95 -20 -96 -17 -99 -22 -28 -52 92 -39
238 -87 265 -87 31 0 29 12 -12 65 -18 25 -42 59 -52 75 -18 31 -29 34 -78 19z"/>
<path d="M2680 1400 c0 -11 2 -20 4 -20 2 0 6 9 9 20 3 11 1 20 -4 20 -5 0 -9
-9 -9 -20z"/>
<path d="M870 1394 c0 -11 69 -134 90 -161 l18 -23 12 45 c12 42 11 49 -11 90
-16 30 -31 45 -44 45 -11 0 -30 3 -42 6 -13 4 -23 3 -23 -2z"/>
<path d="M1018 1392 c-21 -2 -38 -5 -38 -8 0 -8 30 -64 34 -64 6 0 49 71 45
73 -2 1 -21 1 -41 -1z"/>
<path d="M2575 1365 c-38 -19 -108 -46 -154 -61 l-84 -27 34 -14 c53 -22 149
-43 202 -43 46 0 49 2 64 38 18 42 30 142 17 141 -5 0 -40 -16 -79 -34z"/>
<path d="M1045 1338 l-18 -37 27 -41 c15 -23 29 -40 31 -38 1 1 -3 37 -9 78
l-12 75 -19 -37z"/>
<path d="M2162 1318 l3 -53 40 2 c21 2 45 9 52 16 11 10 3 20 -43 50 l-55 38
3 -53z"/>
<path d="M1209 1280 l83 -79 62 31 61 31 -102 33 c-56 18 -115 40 -132 48 -62
33 -54 13 28 -64z"/>
<path d="M1095 1297 c14 -123 40 -167 84 -138 11 7 7 20 -23 69 -20 33 -43 75
-51 93 l-16 34 6 -58z"/>
<path d="M1120 1334 c0 -11 88 -164 95 -164 11 0 55 24 54 29 -3 12 -149 144
-149 135z"/>
<path d="M1526 1313 c-32 -21 -36 -27 -25 -38 8 -7 29 -15 47 -18 31 -6 32 -5
32 26 0 52 -10 57 -54 30z"/>
<path d="M1005 1261 c-23 -72 4 -121 67 -121 21 0 38 2 38 5 0 4 -84 122 -95
133 -2 2 -6 -6 -10 -17z"/>
<path d="M2732 1240 c-74 -38 -74 -38 -96 -102 -13 -36 -27 -71 -31 -79 -14
-21 56 32 105 81 47 46 117 141 103 138 -4 0 -41 -18 -81 -38z"/>
<path d="M2272 1263 c-7 -3 -34 -28 -60 -55 -40 -43 -49 -60 -59 -113 -6 -35
-22 -90 -36 -124 l-25 -61 62 0 c75 0 239 33 272 55 45 29 185 218 172 231 -2
2 -36 8 -76 14 -39 5 -101 21 -138 35 -66 25 -87 28 -112 18z"/>
<path d="M1371 1226 l-64 -33 64 -45 c91 -64 157 -101 168 -93 6 3 17 29 26
57 l15 52 -37 40 c-21 23 -38 41 -38 42 0 1 -16 5 -35 8 -27 4 -49 -2 -99 -28z"/>
<path d="M2175 1235 c-3 -8 -7 -22 -10 -30 -2 -8 -1 -15 4 -15 9 0 51 43 51
53 0 14 -41 7 -45 -8z"/>
<path d="M1545 1220 c10 -11 22 -20 27 -20 4 0 8 9 8 20 0 15 -7 20 -27 20
-25 0 -26 0 -8 -20z"/>
<path d="M2055 1228 c-38 -5 -159 -8 -267 -5 l-198 4 0 -28 c0 -29 49 -79 160
-163 98 -75 126 -89 152 -75 40 21 141 100 196 153 45 43 52 56 52 88 0 24 -4
38 -12 37 -7 -1 -44 -6 -83 -11z"/>
<path d="M2577 1117 c-30 -45 -64 -91 -76 -101 -33 -30 -25 -38 18 -17 21 11
49 36 60 55 20 32 64 146 56 146 -2 0 -28 -37 -58 -83z"/>
<path d="M1245 1166 c-18 -13 -17 -16 22 -67 23 -30 62 -74 87 -98 42 -41 46
-43 76 -33 36 13 90 50 90 62 0 4 -28 24 -62 43 -35 20 -85 52 -113 71 -55 39
-72 43 -100 22z"/>
<path d="M1168 1143 c-10 -2 -18 -8 -18 -11 0 -4 37 -44 83 -90 54 -53 90 -82
105 -82 32 0 28 10 -28 65 -28 28 -62 67 -77 87 -25 37 -31 40 -65 31z"/>
<path d="M1584 1134 c-4 -10 -13 -34 -20 -53 -8 -18 -14 -35 -14 -37 0 -13
254 -104 291 -104 20 0 15 6 -26 32 -55 34 -130 93 -187 147 -34 31 -38 33
-44 15z"/>
<path d="M2078 1074 c-35 -31 -87 -72 -115 -92 -29 -19 -53 -38 -53 -42 0 -12
30 -21 97 -27 l61 -6 26 51 c23 46 60 172 50 172 -2 0 -32 -25 -66 -56z"/>
<path d="M1099 1079 c24 -21 46 -38 48 -35 2 2 -4 20 -13 40 -15 30 -23 36
-48 36 l-31 -1 44 -40z"/>
<path d="M1173 1048 c16 -27 37 -48 59 -56 32 -13 31 -11 -22 42 -30 31 -56
56 -58 56 -2 0 7 -19 21 -42z"/>
<path d="M1516 1001 c-9 -10 -35 -26 -56 -36 -37 -17 -39 -19 -25 -36 9 -9 43
-33 75 -53 51 -31 65 -36 97 -31 73 13 213 61 213 75 0 4 -17 11 -37 15 -21 3
-82 24 -137 46 -54 21 -101 39 -106 39 -4 0 -14 -8 -24 -19z"/>
<path d="M2465 955 c-56 -27 -128 -85 -105 -85 22 0 112 54 139 84 29 31 29
31 -34 1z"/>
<path d="M1240 961 c0 -19 154 -110 166 -98 2 2 -20 22 -49 44 -53 40 -117 69
-117 54z"/>
<path d="M1350 935 c0 -12 140 -96 154 -93 22 4 -107 98 -134 98 -11 0 -20 -2
-20 -5z"/>
<path d="M2270 905 c-36 -7 -95 -13 -132 -14 -66 -1 -86 -12 -50 -26 9 -4 54
-9 99 -12 75 -5 85 -4 127 21 81 47 73 53 -44 31z"/>
<path d="M1780 881 c-36 -15 -90 -34 -119 -41 l-54 -13 27 -14 c49 -26 179
-54 219 -48 47 7 125 45 152 75 23 26 16 32 -59 55 -67 20 -90 18 -166 -14z"/>
<path d="M2028 883 c7 -3 16 -2 19 1 4 3 -2 6 -13 5 -11 0 -14 -3 -6 -6z"/>
<path d="M2033 837 c-10 -11 -42 -33 -71 -49 -29 -17 -51 -33 -48 -35 16 -17
248 34 303 66 15 9 12 10 -17 11 -19 0 -61 6 -92 14 -54 12 -58 12 -75 -7z"/>
<path d="M1540 816 c0 -5 120 -46 134 -46 6 0 -13 11 -42 25 -48 22 -92 32
-92 21z"/>
</g>
</svg>
